<svg width="133" height="133" viewBox="0 0 133 133" fill="none" xmlns="http://www.w3.org/2000/svg">
<g filter="url(#filter0_d_1_442)">
<circle cx="66.5" cy="52.5" r="22.5" fill="#FAFAFA"/>
<circle cx="66.5" cy="52.5" r="21.5" stroke="#57007B" stroke-width="2"/>
</g>
<path d="M59.9375 51.5627H71.0562L67.6531 47.4752C67.494 47.2837 67.4174 47.0369 67.4403 46.789C67.4631 46.5411 67.5835 46.3125 67.775 46.1533C67.9665 45.9942 68.2133 45.9176 68.4612 45.9405C68.7091 45.9633 68.9377 46.0837 69.0969 46.2752L73.7844 51.9002C73.8159 51.9449 73.8441 51.9919 73.8688 52.0408C73.8688 52.0877 73.8687 52.1158 73.9344 52.1627C73.9769 52.2702 73.9991 52.3846 74 52.5002C73.9991 52.6158 73.9769 52.7302 73.9344 52.8377C73.9344 52.8846 73.9344 52.9127 73.8688 52.9596C73.8441 53.0085 73.8159 53.0555 73.7844 53.1002L69.0969 58.7252C69.0087 58.831 68.8983 58.9161 68.7736 58.9745C68.6488 59.0328 68.5127 59.0629 68.375 59.0627C68.156 59.0631 67.9437 58.9868 67.775 58.8471C67.6801 58.7684 67.6016 58.6717 67.5441 58.5626C67.4866 58.4536 67.4511 58.3342 67.4398 58.2114C67.4285 58.0886 67.4415 57.9648 67.4781 57.8471C67.5147 57.7293 67.5742 57.6199 67.6531 57.5252L71.0562 53.4377H59.9375C59.6889 53.4377 59.4504 53.3389 59.2746 53.1631C59.0988 52.9873 59 52.7488 59 52.5002C59 52.2516 59.0988 52.0131 59.2746 51.8373C59.4504 51.6615 59.6889 51.5627 59.9375 51.5627Z" fill="#57007B"/>
<defs>
<filter id="filter0_d_1_442" x="0" y="0" width="133" height="133" filterUnits="userSpaceOnUse" color-interpolation-filters="sRGB">
<feFlood flood-opacity="0" result="BackgroundImageFix"/>
<feColorMatrix in="SourceAlpha" type="matrix" values="0 0 0 0 0 0 0 0 0 0 0 0 0 0 0 0 0 0 127 0" result="hardAlpha"/>
<feOffset dy="14"/>
<feGaussianBlur stdDeviation="22"/>
<feColorMatrix type="matrix" values="0 0 0 0 0.0561111 0 0 0 0 0.0777333 0 0 0 0 0.133333 0 0 0 0.08 0"/>
<feBlend mode="normal" in2="BackgroundImageFix" result="effect1_dropShadow_1_442"/>
<feBlend mode="normal" in="SourceGraphic" in2="effect1_dropShadow_1_442" result="shape"/>
</filter>
</defs>
</svg>
